<svg width="12" height="12" viewBox="0 0 12 12" fill="none" xmlns="http://www.w3.org/2000/svg">
<path d="M5.99731 7.96H6.30306C6.6088 7.96 6.86281 7.67 6.86281 7.32C6.86281 6.885 6.71699 6.8 6.4771 6.71L6.00202 6.535V7.96H5.99731Z" fill="#171717"/>
<path d="M5.63036 0.950005C3.03388 0.960005 0.931298 3.20501 0.940705 5.96501C0.950113 8.72501 3.06211 10.96 5.65859 10.95C8.25507 10.94 10.3577 8.69501 10.3482 5.93501C10.3388 3.17501 8.22685 0.945005 5.63036 0.950005ZM6.70753 6.00001C7.07442 6.13501 7.56832 6.42501 7.56832 7.32001C7.56832 8.09001 6.99916 8.71001 6.303 8.71001H5.99726V9.00001C5.99726 9.20501 5.83733 9.37501 5.64448 9.37501C5.45162 9.37501 5.29169 9.20501 5.29169 9.00001V8.71001H5.12236C4.35094 8.71001 3.72534 8.02001 3.72534 7.17001C3.72534 6.96501 3.88527 6.79501 4.07812 6.79501C4.27097 6.79501 4.4309 6.96501 4.4309 7.17001C4.4309 7.60501 4.74135 7.96001 5.12236 7.96001H5.29169V6.27001L4.58142 6.00001C4.21453 5.86501 3.72063 5.57501 3.72063 4.68001C3.72063 3.91001 4.28979 3.29001 4.98595 3.29001H5.29169V3.00001C5.29169 2.79501 5.45162 2.62501 5.64448 2.62501C5.83733 2.62501 5.99726 2.79501 5.99726 3.00001V3.29001H6.16659C6.93801 3.29001 7.56361 3.98001 7.56361 4.83001C7.56361 5.03501 7.40369 5.20501 7.21083 5.20501C7.01798 5.20501 6.85805 5.03501 6.85805 4.83001C6.85805 4.39501 6.5476 4.04001 6.16659 4.04001H5.99726V5.73001L6.70753 6.00001Z" fill="#171717"/>
<path d="M4.43091 4.68499C4.43091 5.11999 4.57672 5.20499 4.81662 5.29499L5.2917 5.46999V4.03999H4.98595C4.68021 4.03999 4.43091 4.32999 4.43091 4.68499Z" fill="#171717"/>
</svg>
