<svg width="12" height="12" viewBox="0 0 12 12" fill="none" xmlns="http://www.w3.org/2000/svg">
<path d="M9.59749 2.11C8.162 0.635004 5.83418 0.635004 4.40839 2.11C3.40452 3.135 3.10384 4.61 3.49181 5.91L1.21249 8.26C1.05245 8.43 0.940907 8.765 0.974855 9.005L1.12034 10.095C1.17369 10.455 1.49861 10.795 1.84779 10.845L2.905 10.995C3.13779 11.03 3.46271 10.92 3.6276 10.745L4.02527 10.335C4.12226 10.24 4.12226 10.08 4.02527 9.98L3.08444 9.01C2.9438 8.865 2.9438 8.625 3.08444 8.48C3.22508 8.335 3.45786 8.335 3.5985 8.48L4.54418 9.455C4.63632 9.55 4.79151 9.55 4.88365 9.455L5.91177 8.4C7.16782 8.805 8.59846 8.49 9.59749 7.465C11.0281 5.99 11.0281 3.585 9.59749 2.11ZM7.03204 6C6.36279 6 5.81963 5.44 5.81963 4.75C5.81963 4.06 6.36279 3.5 7.03204 3.5C7.70128 3.5 8.24444 4.06 8.24444 4.75C8.24444 5.44 7.70128 6 7.03204 6Z" fill="#171717"/>
</svg>
