<?xml version="1.0" encoding="UTF-8" standalone="no"?>
<svg
   width="9.395503"
   height="9.395503"
   viewBox="0 0 9.395503 9.395503"
   fill="none"
   version="1.1"
   id="svg3"
   sodipodi:docname="search-normal.svg"
   xmlns:inkscape="http://www.inkscape.org/namespaces/inkscape"
   xmlns:sodipodi="http://sodipodi.sourceforge.net/DTD/sodipodi-0.dtd"
   xmlns="http://www.w3.org/2000/svg"
   xmlns:svg="http://www.w3.org/2000/svg">
  <defs
     id="defs3" />
  <sodipodi:namedview
     id="namedview3"
     pagecolor="#ffffff"
     bordercolor="#000000"
     borderopacity="0.25"
     inkscape:showpageshadow="2"
     inkscape:pageopacity="0.0"
     inkscape:pagecheckerboard="0"
     inkscape:deskcolor="#d1d1d1">
    <inkscape:page
       x="0"
       y="0"
       width="9.395503"
       height="9.395503"
       id="page2"
       margin="0"
       bleed="0" />
  </sodipodi:namedview>
  <path
     d="M 4.698243,-1.9994269e-8 C 7.287673,1.7698001e-4 9.395503,2.108764 9.395503,4.698244 9.395333,7.287564 7.287573,9.395334 4.698243,9.395504 2.108763,9.395504 1.7701275e-4,7.287674 1.2751042e-8,4.698244 1.2751042e-8,2.108664 2.108663,-1.9994268e-8 4.698243,-1.9994269e-8 Z m 0,0.687503999994269 c -2.21375,0 -4.01073998,1.80157002 -4.01073998,4.01074002 1.7e-4,2.20902 1.79709998,4.00976 4.01073998,4.00976 2.21349,-1.7e-4 4.00959,-1.80085 4.00976,-4.00976 0,-2.20906 -1.79616,-4.01057002 -4.00976,-4.01074002 z"
     fill="#171717"
     id="path1" />
  <path
     d="M 4.698243,-1.9994269e-8 C 7.287673,1.7698001e-4 9.395503,2.108764 9.395503,4.698244 9.395333,7.287564 7.287573,9.395334 4.698243,9.395504 2.108763,9.395504 1.7701275e-4,7.287674 1.2751042e-8,4.698244 1.2751042e-8,2.108664 2.108663,-1.9994268e-8 4.698243,-1.9994269e-8 Z m 0,0.687503999994269 c -2.21375,0 -4.01073998,1.80157002 -4.01073998,4.01074002 1.7e-4,2.20902 1.79709998,4.00976 4.01073998,4.00976 2.21349,-1.7e-4 4.00959,-1.80085 4.00976,-4.00976 0,-2.20906 -1.79616,-4.01057002 -4.00976,-4.01074002 z"
     stroke="#000000"
     id="path2"
     style="stroke-width:0;stroke-dasharray:none" />
  <path
     d="m 9.510383,9.854194 c -0.08705,0 -0.17413,-0.0321 -0.24288,-0.1008 l -0.91667,-0.91671 c -0.13292,-0.13292 -0.13292,-0.35292 0,-0.48584 0.13292,-0.13291 0.35292,-0.13291 0.48583,0 l 0.91672,0.91667 c 0.1329,0.13292 0.1329,0.35288 0,0.48588 -0.0688,0.0687 -0.1559,0.1008 -0.243,0.1008 z"
     fill="#171717"
     id="path3" />
</svg>
